<svg id="Layer_1" data-name="Layer 1" xmlns="http://www.w3.org/2000/svg" viewBox="0 0 641.67 141.06"><defs><style>.cls-1{fill:#ff5722;stroke:#ff5722;stroke-miterlimit:10;}</style></defs><path class="cls-1" d="M377.72,260.09h17.5L395.16,383q28.89-3,57.81-5.53c0,5.7,0,8.55,0,14.25q-37.68,3.7-75.23,8.33Z" transform="translate(-377.22 -259.52)"/><path class="cls-1" d="M490.16,260.05l-.24,128.36c-7,.57-10.49.86-17.49,1.48q.12-64.92.23-129.83Z" transform="translate(-377.22 -259.52)"/><path class="cls-1" d="M634.92,327.73c-1.06-17.35-2.07-34.73-2-52.12h-.6c-5.29,15.56-11.06,30.87-17.16,46.12q-12.09,29.83-24.05,59.72c-5.31.22-8,.34-13.29.59q-11-28.92-21.84-57.88c-5.76-15.88-11.09-31.75-15.6-48H540c-.5,18.44-1.56,36.86-2.72,55.27l-3.72,53.81c-6.68.43-10,.66-16.7,1.13q4.83-63.17,9.7-126.32h22.32q11.45,29.77,23,59.5c5,13.51,9.82,27,13.62,40.92l.6,0c4-14.12,9.11-27.81,14.36-41.49q12-29.49,24.22-58.91h22.33q4.17,60.15,8.37,120.3c-6.86.11-10.28.18-17.13.34Q636.61,354.18,634.92,327.73Z" transform="translate(-377.22 -259.52)"/><path class="cls-1" d="M682.45,260h73c0,5.22,0,7.83,0,13.06Q727.73,273,700,273v39.87q25.66,0,51.34.24c0,5.15,0,7.72,0,12.87q-25.68-.25-51.35-.3V380c-7,0-10.52,0-17.54.05Z" transform="translate(-377.22 -259.52)"/><path class="cls-1" d="M780.42,260h17.5l.15,108.68q29,1.08,58,2.6c0,5.41,0,8.11,0,13.52q-37.76-2.24-75.52-3.54Z" transform="translate(-377.22 -259.52)"/><path class="cls-1" d="M892.86,260.05l.24,127.33c-7-.53-10.5-.79-17.5-1.27l-.24-126.06Z" transform="translate(-377.22 -259.52)"/><path class="cls-1" d="M997.73,397.51q-8.52-16-17.27-31.92c-5.34-9.17-10.74-18.32-15.7-27.71l-.4,0c-4.37,8.78-9.49,17.09-14.63,25.43q-8,13.79-16.23,27.49c-8-.74-12-1.1-20.09-1.77q21-31.47,41.29-63.35-19.59-33-39.92-65.6H935.1q9.06,15.49,17.94,31.09c5,8.78,8.87,15.64,12.5,23l.6,0c3.81-7.78,7.22-13.84,12.24-22.34q9.33-15.78,18.47-31.69H1017q-20.19,33.11-41.17,65.66Q997.43,362.56,1018,400C1009.88,399,1005.83,398.46,997.73,397.51Z" transform="translate(-377.22 -259.52)"/></svg>