<?xml version="1.0" encoding="utf-8"?>
<!-- Generator: Adobe Illustrator 26.0.1, SVG Export Plug-In . SVG Version: 6.00 Build 0)  -->
<svg version="1.1" id="Layer_1" xmlns="http://www.w3.org/2000/svg" xmlns:xlink="http://www.w3.org/1999/xlink" x="0px" y="0px"
	 viewBox="0 0 1366 768" style="enable-background:new 0 0 1366 768;" xml:space="preserve">
<style type="text/css">
	.st0{fill:#FF5722;stroke:#FF5722;stroke-miterlimit:10;}
</style>
<g>
	<g>
		<path class="st0" d="M377.72,260.09c7,0,10.5,0,17.5-0.01c-0.02,40.96-0.04,81.91-0.06,122.87c19.26-2,38.52-3.84,57.81-5.53
			c-0.01,5.7-0.01,8.55-0.02,14.26c-25.12,2.47-50.19,5.24-75.23,8.33C377.72,353.37,377.72,306.73,377.72,260.09z"/>
		<path class="st0" d="M490.16,260.05c-0.08,42.78-0.16,85.57-0.24,128.35c-7,0.57-10.49,0.87-17.49,1.48
			c0.07-43.28,0.15-86.55,0.22-129.83C479.66,260.06,483.16,260.06,490.16,260.05z"/>
		<path class="st0" d="M634.92,327.73c-1.06-17.34-2.07-34.73-1.96-52.11c-0.24,0-0.36,0-0.6,0c-5.28,15.56-11.06,30.87-17.16,46.13
			c-8.06,19.89-16.08,39.79-24.05,59.72c-5.32,0.22-7.98,0.34-13.29,0.58c-7.32-19.28-14.61-38.57-21.84-57.87
			c-5.76-15.88-11.09-31.75-15.6-48.03c-0.16,0-0.24,0-0.4,0c-0.51,18.44-1.57,36.86-2.72,55.27c-1.24,17.94-2.48,35.87-3.72,53.81
			c-6.68,0.43-10.02,0.65-16.7,1.13c3.22-42.11,6.45-84.21,9.7-126.32c8.93,0,13.4,0,22.33,0c7.62,19.86,15.3,39.69,23.03,59.5
			c4.95,13.51,9.82,27.02,13.62,40.91c0.24-0.01,0.36-0.01,0.6-0.02c3.95-14.13,9.11-27.81,14.36-41.5
			c8.04-19.65,16.11-39.29,24.22-58.91c8.93,0,13.4,0,22.33,0c2.78,40.1,5.57,80.2,8.37,120.29c-6.85,0.11-10.28,0.18-17.13,0.34
			C637.17,363.01,636.05,345.37,634.92,327.73z"/>
		<path class="st0" d="M682.45,260.02c24.34,0,48.68,0,73.02,0c0,5.22,0.01,7.84,0.01,13.06c-18.51-0.04-37.02-0.07-55.53-0.07
			c0,13.29,0,26.57,0,39.86c17.11,0.02,34.23,0.1,51.34,0.24c0,5.15,0.01,7.72,0.01,12.87c-17.12-0.17-34.23-0.28-51.35-0.3
			c0,18.09,0,36.18,0,54.28c-7.01-0.01-10.52,0-17.53,0.05C682.43,340.02,682.44,300.02,682.45,260.02z"/>
		<path class="st0" d="M780.42,260.03c7,0,10.5,0,17.5,0c0.05,36.23,0.11,72.45,0.16,108.68c19.34,0.72,38.66,1.58,57.99,2.6
			c0.01,5.41,0.02,8.11,0.03,13.52c-25.16-1.49-50.33-2.67-75.52-3.54C780.52,340.87,780.47,300.45,780.42,260.03z"/>
		<path class="st0" d="M892.86,260.05c0.08,42.44,0.16,84.89,0.24,127.33c-7-0.53-10.5-0.79-17.5-1.27
			c-0.08-42.02-0.16-84.04-0.24-126.06C882.36,260.05,885.86,260.05,892.86,260.05z"/>
		<path class="st0" d="M997.73,397.51c-5.69-10.68-11.45-21.31-17.28-31.91c-5.33-9.17-10.74-18.32-15.69-27.71
			c-0.16-0.01-0.24-0.01-0.4-0.02c-4.37,8.78-9.49,17.09-14.63,25.43c-5.36,9.19-10.77,18.36-16.23,27.49
			c-8.04-0.74-12.06-1.09-20.1-1.77c13.98-20.98,27.74-42.09,41.29-63.35c-13.06-22.02-26.37-43.88-39.92-65.6
			c8.13,0,12.19,0,20.32,0.01c6.04,10.33,12.03,20.69,17.95,31.09c5.04,8.78,8.87,15.64,12.49,22.94c0.24,0.01,0.36,0.02,0.6,0.03
			c3.81-7.79,7.22-13.84,12.24-22.34c6.23-10.53,12.38-21.09,18.48-31.7c8.05,0,12.07,0.01,20.12,0.01
			c-13.45,22.06-27.17,43.94-41.17,65.66c14.42,24.54,28.48,49.27,42.18,74.21C1009.88,398.95,1005.83,398.46,997.73,397.51z"/>
	</g>
</g>
</svg>
